{"title":"Australias Cheapest Weddings - S01E02","uid":15742122,"size":379896230,"categoryP":"video","categoryS":"tv_shows","magnet":"?xt=urn:btih:7ce9f2c7248820fca7c3136a6f2604e67786e963&amp;dn=Australias+Cheapest+Weddings+-+S01E02&amp;tr=udp%3A%2F%2Ftracker.leechers-paradise.org%3A6969&amp;tr=udp%3A%2F%2Fzer0day.ch%3A1337&amp;tr=udp%3A%2F%2Fopen.demonii.com%3A1337&amp;tr=udp%3A%2F%2Ftracker.coppersurfer.tk%3A6969&amp;tr=udp%3A%2F%2Fexodus.desync.com%3A6969","seeders":2,"leechers":0,"uploader":"Bullrout","files":1,"time":1472928220,"description":"Australia's Cheapest Weddings - S01E02\r\n\r\nDesrae and Shaun plan their budget wedding in a remote country church, with no water or electricity nearby. When the celebratory fireworks spark a dangerous bush fire guests pitch in to help fight it.\r\n\r\nComplete name                            : Australia's Cheapest Weddings - S01E02.mp4\r\nFormat                                   : MPEG-4\r\nFormat profile                           : Base Media / Version 2\r\nCodec ID                                 : mp42 (mp42/isom/avc1)\r\nFile size                                : 362 MiB\r\nDuration                                 : 45mn 24s\r\nOverall bit rate mode                    : Variable\r\nOverall bit rate                         : 1 115 Kbps\r\n\r\n\r\nVideo\r\nID                                       : 2\r\nFormat                                   : AVC\r\nFormat/Info                              : Advanced Video Codec\r\nFormat profile                           :   \r\nFormat settings, CABAC                   : Yes\r\nFormat settings, ReFrames                : 3 frames\r\nCodec ID                                 : avc1\r\nCodec ID/Info                            : Advanced Video Coding\r\nDuration                                 : 45mn 24s\r\nBit rate mode                            : Variable\r\nBit rate                                 : 984 Kbps\r\nMaximum bit rate                         : 1 000 Kbps\r\nWidth                                    : 720 pixels\r\nHeight                                   : 404 pixels\r\nDisplay aspect ratio                     : 16:9\r\nOriginal display aspect ratio            : 16:9\r\nFrame rate mode                          : Constant\r\nFrame rate                               : 25.000 fps\r\nStandard                                 : PAL\r\nColor space                              : YUV\r\nChroma subsampling                       : 4:2:0\r\nBit depth                                : 8 bits\r\nScan type                                : Progressive\r\nBits/(Pixel*Frame)                       : 0.135\r\nStream size                              : 320 MiB (88%)\r\nWriting library                          : x264 core 112\r\nColor range                              : Limited\r\nColor primaries                          : BT.601 PAL\r\nTransfer characteristics                 : BT.470 System B, BT.470 System G\r\nMatrix coefficients                      : BT.601\r\n\r\nAudio\r\nID                                       : 1\r\nFormat                                   : AAC\r\nFormat/Info                              : Advanced Audio Codec\r\nFormat profile                           : LC\r\nCodec ID                                 : 40\r\nDuration                                 : 45mn 24s\r\nBit rate mode                            : Variable\r\nBit rate                                 : 128 Kbps\r\nMaximum bit rate                         : 576 Kbps\r\nChannel(s)                               : 2 channels\r\nChannel positions                        : Front: L R\r\nSampling rate                            : 48.0 KHz\r\nFrame rate                               : 46.875 fps (1024 spf)\r\nCompression mode                         : Lossy\r\nStream size                              : 41.6 MiB (11%)","torrent":{"xt":"urn:btih:7ce9f2c7248820fca7c3136a6f2604e67786e963","amp;dn":"Australias+Cheapest+Weddings+-+S01E02","amp;tr":["udp%3A%2F%2Ftracker.leechers-paradise.org%3A6969","udp%3A%2F%2Fzer0day.ch%3A1337","udp%3A%2F%2Fopen.demonii.com%3A1337","udp%3A%2F%2Ftracker.coppersurfer.tk%3A6969","udp%3A%2F%2Fexodus.desync.com%3A6969"],"infoHash":"7ce9f2c7248820fca7c3136a6f2604e67786e963","infoHashBuffer":{"type":"Buffer","data":[124,233,242,199,36,136,32,252,167,195,19,106,111,38,4,230,119,134,233,99]},"announce":[],"urlList":[]}}